<?xml version="1.0" standalone="no"?><!DOCTYPE svg PUBLIC "-//W3C//DTD SVG 1.1//EN" "http://www.w3.org/Graphics/SVG/1.1/DTD/svg11.dtd"><svg t="1633945133153" class="icon" viewBox="0 0 1024 1024" version="1.1" xmlns="http://www.w3.org/2000/svg" p-id="831" xmlns:xlink="http://www.w3.org/1999/xlink" width="200" height="200"><defs><style type="text/css"></style></defs><path d="M530.389333 572.202667c-82.602667 22.485333-172.885333 93.312-172.885333 162.304v88.32H124.288a25.898667 25.898667 0 0 1-25.898667-25.941334V736.426667c0-114.773333 228.394667-172.672 342.784-172.672a526.08 526.08 0 0 1 89.216 8.490666zM357.546667 511.786667a155.477333 155.477333 0 1 1-0.042667-310.954667 155.477333 155.477333 0 0 1 0 310.954667z m342.912 51.797333c66.858667-1.706667 122.965333-56.704 126.08-123.477333a129.536 129.536 0 0 0-126.805334-135.509334h-5.205333a129.493333 129.493333 0 1 0 5.888 258.986667z m-6.016 51.925333c-77.781333 0-233.216 46.293333-233.216 138.197334v43.178666c0 14.293333 11.605333 25.898667 25.898666 25.898667h414.634667a25.898667 25.898667 0 0 0 25.898667-25.898667v-43.178666c0-91.989333-155.434667-138.24-233.216-138.24z" p-id="832"></path></svg>